<svg id="Layer_1" data-name="Layer 1" xmlns="http://www.w3.org/2000/svg" viewBox="0 0 340 340"><defs><style>.cls-1{fill:#fff;}.cls-2{fill:#108a7e;}.cls-3{fill:#1a1a1a;}</style></defs><circle class="cls-1" cx="170" cy="170" r="137"/><path class="cls-2" d="M170,35A135,135,0,1,1,35,170,135,135,0,0,1,170,35m0-4A139,139,0,0,0,71.71,268.29,139,139,0,0,0,268.29,71.71,138.12,138.12,0,0,0,170,31Z"/><path class="cls-2" d="M286.91,165.36V158l-6.42-2.77-2.78-6.51,3-6.58-5-5.23-6.54,2.82-6.52-2.45-2.75-6.7h-7.38l-2.72,6.71-6.51,2.57-6.71-2.9-5.11,5.08,2.84,6.55-2.84,6.45L224.2,158v7.25l6.81,2.63,3.24,6.57-2.86,6.81,3.14,3.1,2.95-1.1,1.14,2.36,4.5-2.07,6.65,3,2.73,6.83h7.22l2.54-6.8,6.6-3,6.85,3.09,5.05-5.48-2.76-6.8,2.62-6.39Zm-30.79,8a11.71,11.71,0,1,1,11.71-11.7A11.7,11.7,0,0,1,256.12,173.39Z"/><path class="cls-3" d="M262.61,168.12h-75l-1,11.13V219a5.82,5.82,0,0,1-5.7,5.08H163.5a5.75,5.75,0,0,0,5.73,5.56h93.38a5.76,5.76,0,0,0,5.75-5.74v-50A5.77,5.77,0,0,0,262.61,168.12Z"/><path class="cls-2" d="M211.83,164.58a42,42,0,0,1-12.66.07c-5.77-1.1-8.23-3.8-9.26-7.2s-2-6.71-1.72-10.69.49-5.19.49-5.19-2.3,1.23-7.43.19-7-2.37-7-2.37a63.51,63.51,0,0,0-.41,10.71c.29,5.57,2,17.13,6.16,22.48s7.5,9.8,20.19,9.39c0,0-1.41,17.2-1.67,27.36s0,20.26,0,20.26h51.66s.34-8.75,0-17.31c-.41-10.21-.86-20.74-1.91-27.5-.93-6-1.76-10.66-8.31-15.15a29.53,29.53,0,0,0-14.11-4.74Z"/><path class="cls-2" d="M125.13,170.08a5.26,5.26,0,0,0-1.94,4.25c.16,2.69,4.25,4.12,6.83,3.78l.2-3.39a7.22,7.22,0,0,1-2.5-4.79S125.83,170.79,125.13,170.08Z"/><path class="cls-2" d="M140.23,170.21s-.88,3.94-2.35,4.43l.15,3.48s5,.07,6.74-3.07-2-5-2-5A3.51,3.51,0,0,1,140.23,170.21Z"/><path class="cls-2" d="M141.36,165.13s1.11-4.61-.15-7.37-4.11-3.61-7.22-3.64c0,0-5.19,0-6.74,2.62a10.33,10.33,0,0,0-1.1,8.27c.11.35,1,.46,1,.46a3.11,3.11,0,0,1,3-2.5l3.77-4.7,3.75,4.47s2.45.45,2.79,2.62Z"/><path class="cls-3" d="M130,179s-7.73-.25-12.11,3.67-4.43,7-4.43,7l-2.33-7.21s-1.33-1.86-8.78-.64-6.12,3.44-6.12,3.44L100,208s1.55,12.19,11,11.77,8-12.26,8-12.26a36,36,0,0,1,.27,8.44c-.42,4.41-1.74,14.74-2.91,19.8s-1.59,6.34-1.59,6.34h38.93a175.7,175.7,0,0,1-3.65-18.31c-.8-7.12-1.31-12.13-.89-14.51,0,0,.38,9.64,8.24,10.49s10.53-8.93,11.1-11.68,3.74-22.63,3.74-22.63.57-2.45-7.62-3.76c-6.72-1.08-7.28.91-7.28.91l-2.27,6.89s-2-5.77-6.29-8.19a21,21,0,0,0-10.39-2.47Z"/><path class="cls-2" d="M178.42,98.55V78s-9.19-.24-14.94,6.41a23.4,23.4,0,0,0-5.66,14.19Z"/><path class="cls-1" d="M213.61,160.86l.13,1.26-1.84,2.77,0,10.52c.3-.29-1.55,23.65-1.66,27l9.14-26.62.76,1.24,5.7-12.17L223.13,162l-.52-6.77s2.64.9,3.56-1,.14-4.06-1.44-4.39a4.43,4.43,0,0,0-3.18.92s-3.3-4-3.52-6.48c0,0-3.13,3.84-7.71,2.29,0,0-.2,7.6-.09,9.15S210.12,160.47,213.61,160.86Z"/><path class="cls-1" d="M186.68,142.08s-.14-4.89-.1-5.89a2.47,2.47,0,0,1,1.76-2.29c1.1-.34,3.92-1.79,3.81-2.88a1.81,1.81,0,0,0-2.05-1.79,15.19,15.19,0,0,0-4.5,1.52,19,19,0,0,1-2.75,1.19,80.28,80.28,0,0,0-5.5-6c-2-1.8-3.64-1.84-4.14-1.08,0,0-1.76-.57-2.35.52a2.89,2.89,0,0,0-2.3.1c-.93.63-.59,2.35,1.28,5s5,4.27,5.38,4.85,1.47,3.42.89,4.78c0,0,.35.85,4.07,1.42A43.21,43.21,0,0,0,186.68,142.08Z"/><path class="cls-3" d="M176,138.31s-1.39.29-1.59.83S176,140.3,176,140.3Z"/><path class="cls-3" d="M186.55,140.14l.15,2.06s2.23,0,2-.81S186.55,140.14,186.55,140.14Z"/><path class="cls-1" d="M129.73,182.2l.49-7.35s-2.41-2.16-2.49-4.77c0,0-3.61,1.21-3.8-2.08s3.24-2.53,3.24-2.53.88-2.7,3-2.5l3.77-4.7,3.75,4.47a3.5,3.5,0,0,1,3,2.76s3.17-.69,3.31,2.2-2.68,3-3.64,2.53c-.18,0-1.2,3.88-2.74,4.54l.92,7.31s-.93,1.45-4.58,1.25S129.73,182.2,129.73,182.2Z"/><path class="cls-1" d="M108.65,184.8l-1.29-4.57a7.08,7.08,0,0,0,.78-4c-.28-2.15-.22-5.13-3.56-4.73a35.59,35.59,0,0,1-2-5.16,33.26,33.26,0,0,0-1.14-3.48s-1,1.09-1.71,1-2-.66-1.93-1.1a11,11,0,0,0,0,4.26,21.69,21.69,0,0,0,1.52,4.84,11.87,11.87,0,0,0-2.88-1.61c-.75-.08-3.17,1.61-2.76,3.36A4.41,4.41,0,0,0,92,176c-.07,1.23,1.83,3,4.6,5.06,0,0,1.42,2.14,2.75,2.23l.68,3.19a29.11,29.11,0,0,0,4.58-.52A16.39,16.39,0,0,0,108.65,184.8Z"/><path class="cls-1" d="M159.44,184.56a11.88,11.88,0,0,0,.54-4.74,38.24,38.24,0,0,0-1.4-6.64c-.39-1-.77-4,1.29-4s2.38,1.1,2.58,2.19.77,3.12.77,3.12l5.21-7.59s2.74-1.35,3.08,1.17c0,.41.93-.21,2,.33a1.63,1.63,0,0,1,.77,1.8c.14.23.46.13,1.48.56s1.06,1.4.51,2.47a38.2,38.2,0,0,1-3.64,5.77,12.47,12.47,0,0,0-2.79,4.67,9,9,0,0,0-.68,2.76A24.23,24.23,0,0,1,159.44,184.56Z"/><path class="cls-2" d="M101.4,162a1.82,1.82,0,1,1-1.82-1.82A1.82,1.82,0,0,1,101.4,162Z"/><path class="cls-1" d="M140,181.26a18,18,0,0,0-.67-2.33,9.13,9.13,0,0,0-1.14-1.57H130L128.65,179s-2.67,7.9.56,9,4.56-3.22,4.64-3.56.36-1.1.36-1.1.84,5.59,4.32,4.92S140.21,182,140,181.26Z"/><path class="cls-1" d="M113.42,149.86A1.82,1.82,0,1,1,111.6,148,1.81,1.81,0,0,1,113.42,149.86Z"/><path class="cls-3" d="M119.45,155.94a1.82,1.82,0,1,1-1.81-1.82A1.81,1.81,0,0,1,119.45,155.94Z"/><path class="cls-1" d="M132,143.08a1.82,1.82,0,1,1-1.82-1.82A1.81,1.81,0,0,1,132,143.08Z"/><path class="cls-3" d="M91.48,152a1.82,1.82,0,1,1-1.82-1.82A1.83,1.83,0,0,1,91.48,152Z"/><polygon class="cls-3" points="215.88 169.99 213.12 173.73 213.49 176.93 211.68 180.83 210.28 202.44 216.81 183.17 216.34 177.28 218.48 174.27 215.88 169.99"/><path class="cls-3" d="M225.84,150.36s2.2-2.86,1.24-5.62-2.66-4.31-7-3.43c0,0-2.22-2.53-5-2.21s-6,1.47-6.62,4.57a7,7,0,0,0,1.69,5.62l.16-2.72s5.55,1.16,7.52-2.42c.19.13,2.24,6,3.71,6.61A3,3,0,0,1,225.84,150.36Z"/><rect class="cls-3" x="150.48" y="141.84" width="9.46" height="9.46"/><rect class="cls-2" x="165.69" y="158.61" width="6.74" height="6.74"/><path class="cls-3" d="M183.94,83.48v20.61H163.33a20.61,20.61,0,1,0,20.61-20.61Z"/><polygon class="cls-1" points="216.57 171.12 214.38 173.94 214.85 177.17 211.14 188.64 211.68 180.83 213.49 176.93 213.28 173.53 215.88 169.99 216.57 171.12"/><path class="cls-1" d="M216.27,139.39l.69-.11a4.63,4.63,0,0,0-1.87-.18c-2.79.31-6,1.47-6.62,4.57a7,7,0,0,0,1.69,5.62l.16-2.72s.31.06.8.11C211.14,146.57,208.83,140.47,216.27,139.39Z"/><path class="cls-1" d="M134,154.12s-5.19,0-6.74,2.62a10.33,10.33,0,0,0-1.1,8.27,2,2,0,0,0,1,.35,3.53,3.53,0,0,1,.58-1.2c-.12-1.31-1.31-9,6-9.63.54-.05,1.77-.2,2.15-.27A14.93,14.93,0,0,0,134,154.12Z"/><path class="cls-1" d="M123.19,174.33c.14,2.49,3.65,3.89,6.22,3.82.14-.39-4.76-.74-4.72-4.11,0-3.15,2-3.57,2-3.57l-.5-.12a1.29,1.29,0,0,1-1.07-.27A5.26,5.26,0,0,0,123.19,174.33Z"/><path class="cls-1" d="M218,144s2.81,5.42,5,5.66l-1.55,1.2A48.44,48.44,0,0,1,218,144Z"/><path class="cls-2" d="M104.84,217.75s1.66-3.78,5.65-3.86a8,8,0,0,1,6.21,2.87s-1.36,2.85-5.66,3S104.84,217.75,104.84,217.75Z"/><path class="cls-2" d="M151.74,216.72a6.62,6.62,0,0,1,6.24-2.79,7.08,7.08,0,0,1,5.52,3.9s-1.88,2.4-6,1.94S151.74,216.72,151.74,216.72Z"/><path class="cls-3" d="M273.68,185.41c-.1,0-1.68-.77-1.68-.77-1.23-.59-2.44-1.16-3.65-1.71a11.13,11.13,0,0,1,3.85,1.27l1.43.68,1.09-1.1c1.26-1.27,2.57-2.58,3.81-3.9a1.07,1.07,0,0,0,.05-.84c-.44-1-.91-2-1.37-2.93s-.84-1.76-1.24-2.65a2,2,0,0,1-.09-1.37c.7-2,1.37-3.8,2.05-5.46a2.2,2.2,0,0,1,1.1-1.11c2-.81,4-1.51,5.49-2a.74.74,0,0,0,.6-.86c-.05-2.22-.05-4.25,0-6.19,0-.53-.14-.74-.68-.93-1.61-.55-3.5-1.22-5.39-2a2.41,2.41,0,0,1-1.14-1.19c-.65-1.5-1.29-3.12-2.07-5.23a2,2,0,0,1,0-1.35c.42-.94.87-1.88,1.31-2.81s.94-2,1.39-3a1,1,0,0,0-.1-.82c-.83-.88-1.7-1.76-2.54-2.61-.64-.65-1.29-1.3-1.92-2a.65.65,0,0,0-.94-.15c-2.11,1-3.88,1.89-5.58,2.64a2,2,0,0,1-1.44.07c-1.81-.65-3.61-1.35-5.35-2.09a2.23,2.23,0,0,1-1.13-1.06c-.64-1.58-1.26-3.28-2-5.49-.17-.51-.33-.7-.84-.7-2,0-4.05,0-6.25,0-.5,0-.73.14-.91.69-.3.87-.62,1.74-.94,2.61s-.68,1.85-1,2.78a1.82,1.82,0,0,1-1.3,1.25c-1.74.61-3.42,1.28-5,2a1.83,1.83,0,0,1-1.8,0c-.94-.47-1.88-.92-2.82-1.37s-1.76-.84-2.63-1.28a.72.72,0,0,0-1,.18c-1.58,1.65-3,3.08-4.38,4.38-.4.38-.38.62-.14,1.12.8,1.61,1.73,3.52,2.59,5.49a2.13,2.13,0,0,1,0,1.53c-.75,1.76-1.57,3.51-2.42,5.2a2.38,2.38,0,0,1-1.17,1.15l-.7.26a.72.72,0,0,1,.53-.71,1.91,1.91,0,0,0,.91-.91c.85-1.69,1.66-3.43,2.41-5.18a1.63,1.63,0,0,0,0-1.15c-.85-1.95-1.78-3.86-2.57-5.47a1.23,1.23,0,0,1,.23-1.68c1.36-1.29,2.79-2.71,4.37-4.36a1.16,1.16,0,0,1,1.58-.27l2.63,1.27c.94.45,1.89.9,2.82,1.37a1.38,1.38,0,0,0,1.39,0c1.58-.73,3.28-1.41,5-2a1.37,1.37,0,0,0,1-.95c.32-.94.66-1.87,1-2.8s.63-1.73.93-2.6a1.3,1.3,0,0,1,1.38-1c2.19,0,4.21,0,6.17,0a1.26,1.26,0,0,1,1.37,1c.75,2.21,1.37,3.9,2,5.47a1.78,1.78,0,0,0,.88.8c1.73.73,3.52,1.43,5.32,2.08a1.64,1.64,0,0,0,1.09-.05c1.69-.76,3.46-1.6,5.56-2.64a1.12,1.12,0,0,1,1.49.24c.63.66,1.28,1.32,1.92,2,.84.85,1.71,1.73,2.55,2.61a1.44,1.44,0,0,1,.18,1.34c-.44,1-.91,2-1.38,3s-.89,1.86-1.31,2.8a1.43,1.43,0,0,0,0,1c.78,2.11,1.41,3.71,2.06,5.21a1.9,1.9,0,0,0,.88.93c1.87.77,3.76,1.44,5.36,2a1.25,1.25,0,0,1,1,1.39c0,1.94,0,3.95,0,6.17a1.18,1.18,0,0,1-.92,1.32c-1.5.53-3.49,1.23-5.46,2a1.68,1.68,0,0,0-.83.85c-.68,1.66-1.35,3.44-2.05,5.44a1.49,1.49,0,0,0,.08,1c.4.89.82,1.77,1.24,2.65s.93,2,1.37,2.94a1.48,1.48,0,0,1-.14,1.36c-1.25,1.32-2.56,2.64-3.82,3.91l-1.2,1.22A.24.24,0,0,1,273.68,185.41ZM245,168.27a11.66,11.66,0,0,1-3.74-8.77,12.18,12.18,0,0,1,3.57-8.68,12.3,12.3,0,0,1,21,8.71,11.8,11.8,0,0,1-3.59,8.67,14.11,14.11,0,0,0,3.11-8.67,11.8,11.8,0,1,0-23.6,0,11.41,11.41,0,0,0,3.43,8.36C245.13,168.25,245.07,168.27,245,168.27Z"/><path class="cls-3" d="M186.69,142.44c-.31-.89-.9-6.79.21-7.79a9.59,9.59,0,0,1,2.74-1.67c.3-.14.6-.28.88-.43,1-.54,1.52-1.25,1.38-1.93a1.65,1.65,0,0,0-1.54-1.15c-1.65-.14-4.32,1.3-6.28,2.34s-6.26-.57-6.44-.64c1.37,0,4.8,1,6,.32,2.31-1.23,4.94-2.64,6.73-2.49a2.1,2.1,0,0,1,2,1.52c.09.43.11,1.53-1.62,2.45-.29.16-.6.3-.91.44a9.19,9.19,0,0,0-2.62,1.6c-.7.63-.55,4.73-.29,7.16C186.71,142.43,186.7,142.44,186.69,142.44Z"/><path class="cls-3" d="M176.09,140.54c-.23-.31.26-4.37-1.46-5.35s-7-5.44-6.74-8.78a1.5,1.5,0,0,1,.83-1.28,2.23,2.23,0,0,1,2.16.26,59.16,59.16,0,0,1,5.07,4.84c.68.13,5.13,1,6.58,3.94-1.85-2.66-6.69-3.47-6.74-3.48s-4-4.14-5.17-4.9a1.77,1.77,0,0,0-1.69-.23,1,1,0,0,0-.56.89c-.21,2.9,4.51,7.21,6.5,8.33s1.48,5.37,1.46,5.55A.25.25,0,0,1,176.09,140.54Z"/><path class="cls-3" d="M179.93,131.83c-2.56-2.71-6.44-6.7-7.36-6.86a1.42,1.42,0,0,0-1.6.73c-.23-.65.48-1.42,1.68-1.21,1.37.25,6.84,6.26,7.46,6.94C180.05,131.81,180,131.83,179.93,131.83Z"/><path class="cls-3" d="M182.85,132.18c-.2-.11-2.5-2.8-3-3.33-.27-.26-.58-.6-.92-1-1.12-1.2-2.52-2.69-3.66-3.09-1.36-.47-1.81.23-1.82.24-.38-.3.26-1.29,2-.69,1.25.44,2.69,2,3.85,3.22.34.36.64.69.91.95.55.54,2.79,3.16,2.89,3.27C183,132.16,182.91,132.18,182.85,132.18Z"/><path class="cls-3" d="M181.9,102.58H161.3c0-.48,20.36-.48,20.36-.48V81.73c.48,0,.48,20.61.48,20.61A.24.24,0,0,1,181.9,102.58Z"/><path class="cls-3" d="M181.9,123.18A20.84,20.84,0,1,1,196,117.73a22.88,22.88,0,0,0,6.31-15.39,20.37,20.37,0,1,0-20.37,20.37,20.75,20.75,0,0,0,3.52-.31A6.43,6.43,0,0,1,181.9,123.18Z"/><path class="cls-3" d="M159.55,184.65a21.29,21.29,0,0,0-.78-9.92c-.83-2.56-.93-4.16-.32-5a2.11,2.11,0,0,1,1.77-.82c2.05-.1,2.36,1.71,2.64,3.32.21,1.17.42,2.38,1.22,2.94a4.31,4.31,0,0,1,1.59,4.29c-.45-.2,0-2.57-1.86-3.89-1-.68-1.2-2-1.42-3.26-.29-1.61-.54-3-2.14-2.93a1.66,1.66,0,0,0-1.41.62c-.51.74-.38,2.25.39,4.62,1.4,4.3,1.15,8.46.54,9.92A.25.25,0,0,1,159.55,184.65Z"/><path class="cls-3" d="M166.53,176.45c1.69-2.81,3.55-6,4.49-7.72a1.92,1.92,0,0,0,.24-.55,1.21,1.21,0,0,0-.49-1.11,1.82,1.82,0,0,0-1.8-.26,3.33,3.33,0,0,0-1.34,1.35c-.6.94-1.14,1.72-1.62,2.42a31.62,31.62,0,0,0-2.44,3.94,10.43,10.43,0,0,1,2.05-4.21c.47-.69,1-1.48,1.61-2.41a3.8,3.8,0,0,1,1.57-1.53,2.26,2.26,0,0,1,2.27.33,1.7,1.7,0,0,1,.66,1.57,2.17,2.17,0,0,1-.29.69,62.49,62.49,0,0,1-4.72,7.4A.25.25,0,0,1,166.53,176.45Z"/><path class="cls-3" d="M169.43,178.13c1.51-2.58,3.09-5.08,4.52-7.81a1.58,1.58,0,0,0,.23-.72,1.3,1.3,0,0,0-.63-.94,1.72,1.72,0,0,0-2,.05,1.47,1.47,0,0,1,2.27-.46,1.82,1.82,0,0,1,.85,1.33,1.91,1.91,0,0,1-.29,1,49.27,49.27,0,0,1-4.75,7.5A.28.28,0,0,1,169.43,178.13Z"/><path class="cls-3" d="M169.06,186.73a10.37,10.37,0,0,1,1.83-6.08,44,44,0,0,0,5.26-7.76,2.12,2.12,0,0,0,.26-1.25,1.25,1.25,0,0,0-.74-.84,1.53,1.53,0,0,0-1.31-.13c.47-.71,1-.52,1.51-.31a1.76,1.76,0,0,1,1,1.18,2.55,2.55,0,0,1-.29,1.55,43.81,43.81,0,0,1-5.29,7.81,12.12,12.12,0,0,0-2,5.6A.25.25,0,0,1,169.06,186.73Z"/><path class="cls-3" d="M119,154.82c-.17-.41,9.73-10.31,9.73-10.31.34.34-9.56,10.24-9.56,10.24A.23.23,0,0,1,119,154.82Z"/><path class="cls-3" d="M116.15,154.82c-.17-.07-3.52-3.42-3.52-3.42.34-.34,3.69,3,3.69,3C116.27,154.8,116.21,154.82,116.15,154.82Z"/><path class="cls-3" d="M101,160.8c-.17-.41,9.2-9.78,9.2-9.78.34.34-9,9.71-9,9.71A.23.23,0,0,1,101,160.8Z"/><path class="cls-3" d="M98.22,161c-.17-.07-7.43-7.33-7.43-7.33.34-.34,7.6,6.92,7.6,6.92C98.34,161,98.28,161,98.22,161Z"/><path class="cls-3" d="M111.6,151.92a2.06,2.06,0,1,1,2.06-2.06A2.06,2.06,0,0,1,111.6,151.92Zm0-3.64a1.58,1.58,0,1,0,1.58,1.58A1.58,1.58,0,0,0,111.6,148.28Z"/><path class="cls-3" d="M117.64,158a2.06,2.06,0,1,1,2-2.06A2.06,2.06,0,0,1,117.64,158Zm0-3.64a1.58,1.58,0,1,0,1.58,1.58A1.58,1.58,0,0,0,117.64,154.36Z"/><path class="cls-3" d="M130.16,145.14a2.06,2.06,0,1,1,2.06-2.06A2.05,2.05,0,0,1,130.16,145.14Zm0-3.64a1.58,1.58,0,1,0,1.58,1.58A1.58,1.58,0,0,0,130.16,141.5Z"/><path class="cls-3" d="M99.58,164.09a2.07,2.07,0,0,1-2-1.76,2.12,2.12,0,0,1,2-2.36,2.06,2.06,0,1,1,0,4.12Zm0-3.64A1.58,1.58,0,0,0,98,162a1.64,1.64,0,0,0,1.58,1.58,1.58,1.58,0,0,0,0-3.16Z"/><path class="cls-3" d="M89.66,154.09A2.06,2.06,0,1,1,91.72,152,2.06,2.06,0,0,1,89.66,154.09Zm0-3.64A1.58,1.58,0,1,0,91.24,152,1.58,1.58,0,0,0,89.66,150.45Z"/><path class="cls-3" d="M138,170.17c-1.63,0-3-1.67-3-3.73s1.33-3.73,3-3.73,3,1.67,3,3.73S139.65,170.17,138,170.17Zm0-7c-1.37,0-2.48,1.46-2.48,3.25s1.11,3.25,2.48,3.25,2.49-1.45,2.49-3.25S139.38,163.19,138,163.19Z"/><path class="cls-3" d="M130,170.17c-1.64,0-3-1.67-3-3.73s1.33-3.73,3-3.73,3,1.67,3,3.73S131.61,170.17,130,170.17Zm0-7c-1.38,0-2.49,1.46-2.49,3.25s1.11,3.25,2.49,3.25,2.48-1.45,2.48-3.25S131.35,163.19,130,163.19Z"/><path class="cls-3" d="M135.19,166.68a2.19,2.19,0,0,0-1.41-.63,1.44,1.44,0,0,0-.88.46c-.35-.32.1-.88.84-.93a2.12,2.12,0,0,1,1.61.68C135.31,166.65,135.25,166.68,135.19,166.68Z"/><path class="cls-3" d="M110.28,220.05c-8.52,0-10.49-11.36-11.15-15.16-1-5.57-3.13-19.45-3.15-19.59.49.07,2.65,13.94,3.62,19.51.66,3.81,2.69,15.39,11.42,14.73,3.9-.3,8-3.37,8-11,.57,8-3.8,11.21-7.91,11.53Z"/><path class="cls-3" d="M116.7,205.23c-.54-3.57-1.17-6.66-1.63-8.67a119,119,0,0,0-4.17-14c.47-.11,2.77,5.89,4.63,13.89a64.66,64.66,0,0,1,1.41,8.52A2.61,2.61,0,0,1,116.7,205.23Z"/><path class="cls-3" d="M114.83,242.34c1-2.8,5.66-27.17,4.12-34.16s1-14.22,1-14.29c.43.24-2,7.2-.5,14.19s-3.16,31.65-4.38,34.12A.24.24,0,0,1,114.83,242.34Z"/><path class="cls-3" d="M100.12,186.74a13.25,13.25,0,0,1-1.46-.08c-1.62-.17-2.55-.64-2.68-1.35s.74-1.66,2.4-2.42c-1.18,1.07-2,1.81-1.93,2.34s.93.82,2.26,1a19.32,19.32,0,0,0,5.32-.31c3.31-.6,6.24-1.81,6.82-2.83-.29-1.38-1.84-1.38-3.07-1.19,2.48-.85,3.33-.08,3.59.63a.93.93,0,0,1-.1.8c-.66,1.14-3.66,2.43-7.15,3.06A22.5,22.5,0,0,1,100.12,186.74Z"/><path class="cls-3" d="M113.45,189.74c-.2-.05-.27-.19-.23-.32a28,28,0,0,1,2.22-4.28c4.62-6.94,13-6.3,13.12-6.3-.12.47-8.27-.14-12.72,6.56a29.41,29.41,0,0,0-2.17,4.18A.22.22,0,0,1,113.45,189.74Z"/><path class="cls-3" d="M158.31,220.05l-.79,0c-4.11-.32-8.47-3.52-8.39-11.53.4,7.68,4.53,10.75,8.43,11,8.75.71,10.76-10.92,11.42-14.73,1-5.57,3.13-19.44,3.15-19.58.45.21-1.71,14.09-2.68,19.66C168.79,208.69,166.81,220.05,158.31,220.05Z"/><path class="cls-3" d="M151.88,205.23a42.22,42.22,0,0,1,1.17-8.78,119,119,0,0,1,4.18-14.06c.43.23-1.86,6.2-3.72,14.17a66.08,66.08,0,0,0-1.39,8.45A.25.25,0,0,1,151.88,205.23Z"/><path class="cls-3" d="M153.76,242.34c-1.44-2.6-6.15-27.2-4.59-34.26s-.94-14-1-14c.47-.1,3,7,1.42,14.12S152.76,239.55,154,242C153.83,242.33,153.79,242.34,153.76,242.34Z"/><path class="cls-3" d="M168.49,186.74a22.88,22.88,0,0,1-4-.39c-3.54-.64-6.48-1.9-7.14-3.06a.94.94,0,0,1-.11-.8c.38-1,1.72-1.06,2.44-1.08-.64.5-1.73.52-2,1.24.66,1.42,3.58,2.63,6.89,3.23,4.25.77,7.41.27,7.58-.65.07-.43-.57-1.2-2.19-1.93,1.9.34,2.8,1.23,2.66,2C172.42,186.31,170.69,186.74,168.49,186.74Z"/><path class="cls-3" d="M155.13,189.74a44.46,44.46,0,0,0-2.4-4.35c-4.58-7-13.16-6.18-13.25-6.18,0-.49,8.91-1.37,13.66,5.92a28.83,28.83,0,0,1,2.22,4.29C155.19,189.74,155.16,189.74,155.13,189.74Z"/><path class="cls-3" d="M126,90.24a5.74,5.74,0,0,1,2.45-1.55,6.25,6.25,0,0,1-2.35,1.52A.17.17,0,0,1,126,90.24Zm34.78-1.12c-.92-.38-1.78-.71-2.66-1a4.92,4.92,0,0,1,2.75.55C161,89.06,160.86,89.12,160.77,89.12Zm-29.66-.92a5.7,5.7,0,0,1,2.58-1.26,6.27,6.27,0,0,1-2.5,1.25Zm24.44-.88c-.93-.24-1.83-.45-2.73-.62a5.09,5.09,0,0,1,2.8.15C155.76,87.25,155.66,87.32,155.55,87.32Zm-19.11-.54a5.25,5.25,0,0,1,2.68-.93,6.35,6.35,0,0,1-2.64.93Zm13.71-.52c-.94-.11-1.85-.2-2.76-.25a4.88,4.88,0,0,1,2.79-.22C150.37,86.18,150.27,86.26,150.15,86.26ZM141.9,86a5,5,0,0,1,2.75-.58,6.59,6.59,0,0,1-2.74.58Z"/><path class="cls-3" d="M108.28,133.71a7.84,7.84,0,0,1-1-2.84,21,21,0,0,1,1.21,2.51C108.34,133.7,108.31,133.71,108.28,133.71ZM107,128.35a11.9,11.9,0,0,1-.59-3,6.41,6.41,0,0,1,.82,2.68C107,128.35,107,128.35,107,128.35Zm-.51-5.49a2.71,2.71,0,0,1-.26-1.25c0-.58,0-1.16,0-1.76a2.64,2.64,0,0,1,.44,1.76c0,.34,0,.67,0,1Zm.24-5.5a9.49,9.49,0,0,1,.2-3,6.62,6.62,0,0,1,0,2.8A.24.24,0,0,1,106.73,117.36Zm1.08-5.4c-.2,0-.27-.18-.23-.31.25-.89.54-1.78.86-2.64a6.83,6.83,0,0,1-.4,2.77A.24.24,0,0,1,107.81,112Zm1.93-5.16a7.37,7.37,0,0,1,1.08-2.79,6.73,6.73,0,0,1-.86,2.65A.24.24,0,0,1,109.74,106.8Zm2.78-4.75A6.72,6.72,0,0,1,114,99.47a6.62,6.62,0,0,1-1.29,2.47A.24.24,0,0,1,112.52,102.05ZM116,97.81a5.18,5.18,0,0,1,1.53-2l.36-.3a.46.46,0,0,1-.06.67c-.45.39-.93.78-1.36,1.22S116.1,97.81,116,97.81Z"/><path class="cls-3" d="M122,96.91l-.47,0a3.92,3.92,0,0,1-3.42-4.35,3.92,3.92,0,0,1,4.35-3.42,3.92,3.92,0,0,1,2,7A3.89,3.89,0,0,1,122,96.91Zm0-7.35a3.41,3.41,0,0,0-3.4,3,3.39,3.39,0,0,0,.71,2.53,3.44,3.44,0,0,0,4.82.57,3.43,3.43,0,0,0-1.71-6.11Z"/><path class="cls-3" d="M205.06,94.42a5.75,5.75,0,0,1,2.34-1.73,6.67,6.67,0,0,1-2.22,1.7A.27.27,0,0,1,205.06,94.42Zm5-2.36a5.43,5.43,0,0,1,2.53-1.38A6.59,6.59,0,0,1,210.13,92Zm29.7-.39c-1-.31-1.84-.57-2.7-.81a5.13,5.13,0,0,1,2.78.34C239.93,91.61,239.84,91.67,239.74,91.67ZM215.3,90.41a5.37,5.37,0,0,1,2.66-1,6.41,6.41,0,0,1-2.61,1Zm19.13-.19c-1-.2-1.86-.36-2.75-.5a5,5,0,0,1,2.8,0C234.64,90.14,234.54,90.22,234.43,90.22Zm-13.7-.75a5,5,0,0,1,2.73-.68,6.41,6.41,0,0,1-2.71.67ZM229,89.4c-.93-.08-1.85-.13-2.76-.16a5.07,5.07,0,0,1,2.78-.32C229.21,89.31,229.1,89.4,229,89.4Z"/><path class="cls-3" d="M262.17,132.9c-.23-.3,0-1.31.22-3a7.81,7.81,0,0,1,0,2.81A.25.25,0,0,1,262.17,132.9Zm.68-5.46a9.5,9.5,0,0,1-.19-2.26v-.74c.48.25.48.49.48.74,0,.69,0,1.37-.05,2A.24.24,0,0,1,262.85,127.44Zm-.1-5.51a24.37,24.37,0,0,1-.56-2.94,5,5,0,0,1,.8,2.68C262.77,121.93,262.76,121.93,262.75,121.93Zm-.86-5.45c-.44-1.07-.68-2-.95-2.82a4.86,4.86,0,0,1,1.19,2.53C261.93,116.48,261.91,116.48,261.89,116.48Zm-1.66-5.24c-.57-1-1-1.84-1.36-2.64a4.75,4.75,0,0,1,1.58,2.31C260.29,111.23,260.26,111.24,260.23,111.24Zm-2.49-4.91c-.69-.9-1.21-1.66-1.75-2.38a4.83,4.83,0,0,1,1.95,2C257.82,106.32,257.78,106.33,257.74,106.33Zm-3.29-4.42c-.77-.75-1.41-1.42-2.07-2a4.88,4.88,0,0,1,2.25,1.65C254.56,101.89,254.51,101.91,254.45,101.91Zm-4-3.82c-1-.71-1.48-1-2-1.38l-.38-.26a.46.46,0,0,1,.65-.14c.51.34,1,.69,1.54,1.09C250.62,98.06,250.55,98.09,250.48,98.09Z"/><path class="cls-3" d="M244.08,97.87a3.89,3.89,0,0,1-3.8-3,3.91,3.91,0,1,1,3.8,3Zm0-7.35a3.06,3.06,0,0,0-.79.1,3.43,3.43,0,0,0-1,6.26,3.43,3.43,0,0,0,5.15-3.7A3.39,3.39,0,0,0,245.9,91,3.43,3.43,0,0,0,244.09,90.52Z"/><path class="cls-3" d="M126.42,170.59a2.8,2.8,0,0,1-2-.93,2.73,2.73,0,0,1,.24-3.86,2.73,2.73,0,0,1,2-.68,3,3,0,0,1,.84.19.92.92,0,0,1-.87.29,2.34,2.34,0,0,0-1.64.56,2.21,2.21,0,0,0-.75,1.55,2.25,2.25,0,0,0,.55,1.63,2.19,2.19,0,0,0,1.56.76,2.32,2.32,0,0,0,1.18-.24A.93.93,0,0,1,126.42,170.59Z"/><path class="cls-3" d="M125.87,169.36c-.16-.42,1.13-1.57,1.13-1.57l-1.46-1.16c.3-.38,2,1,2,1,0,.37-1.49,1.71-1.49,1.71A.27.27,0,0,1,125.87,169.36Z"/><path class="cls-3" d="M141.56,170.59a2.76,2.76,0,0,1-1.26-.31,3.42,3.42,0,0,1,1.4-.18,2.25,2.25,0,0,0,2.11-2.39,2.21,2.21,0,0,0-.75-1.55,2.3,2.3,0,0,0-1.64-.56,1.47,1.47,0,0,0-.59.12c.1-.56.26-.58.56-.6a2.72,2.72,0,0,1,2,.68,2.68,2.68,0,0,1,.92,1.88,2.73,2.73,0,0,1-2.56,2.9Z"/><path class="cls-3" d="M142.11,169.36c-.15-.06-1.74-1.4-1.74-1.4,0-.37,1.77-1.71,1.77-1.71.29.38-1.23,1.54-1.23,1.54l1.36,1.15C142.25,169.33,142.18,169.36,142.11,169.36Z"/><path class="cls-3" d="M134,176a6.92,6.92,0,0,1-4.29-1.32,6.64,6.64,0,0,1-2.14-4.13,22.69,22.69,0,0,1-.23-2.42,7,7,0,0,1,.7,2.33,6.21,6.21,0,0,0,2,3.84,6.5,6.5,0,0,0,4,1.22C134.23,175.85,134.12,176,134,176Z"/><path class="cls-3" d="M134,176c1.12-.48,2.73-.7,4-1.7a6.16,6.16,0,0,0,2-3.84,15.61,15.61,0,0,0,.19-2.16,3.69,3.69,0,0,1,.28,2.25,6.64,6.64,0,0,1-2.14,4.13A6.92,6.92,0,0,1,134,176Z"/><path class="cls-3" d="M137.88,163.11a25,25,0,0,1-4-4.83c.43-.22,2,2.41,4.19,4.42C138,163.09,137.94,163.11,137.88,163.11Z"/><path class="cls-3" d="M130.16,163.11c2-2.43,3.68-5.06,3.7-5.08.38.28-1.33,3-3.53,5A.27.27,0,0,1,130.16,163.11Z"/><path class="cls-3" d="M138.05,177.6c-.4-1.95-.53-2.84-.53-2.85.47-.06.6.84.77,2.58C138.06,177.6,138.06,177.6,138.05,177.6Z"/><path class="cls-3" d="M130,177.43a17.51,17.51,0,0,1,0-2.74c.48.07.38.78.28,2.52A.24.24,0,0,1,130,177.43Z"/><path class="cls-3" d="M126.26,165.6a9.83,9.83,0,0,1,.15-8c1.62-3.18,4.7-3.61,7.49-3.61,3.17,0,6.37.32,7.68,4,.58,1.63.58,3.49,0,7.1.08-3.6.08-5.39-.46-6.94-1.09-3.11-3.48-3.72-7.23-3.72-2.65,0-5.56.4-7.06,3.35-1.73,3.37-.37,7.39-.35,7.43C126.31,165.59,126.29,165.6,126.26,165.6Z"/><path class="cls-3" d="M134.32,172.63a3.54,3.54,0,0,1-1-.16c.16-.45,1.31-.08,2.07-.59a1.75,1.75,0,0,0,.65-1.42,1.29,1.29,0,0,1-.39,1.82A2.29,2.29,0,0,1,134.32,172.63Z"/><path class="cls-3" d="M99.37,172.35c-1.67-3.4-3-7.94-1.77-10-.61,2,.47,6.27,2,9.67C99.44,172.34,99.4,172.35,99.37,172.35Z"/><path class="cls-3" d="M104.49,171.72a15,15,0,0,1-1.83-4.57,15.93,15.93,0,0,0-1.6-4.27c1.13.81,1.58,2.43,2.06,4.14a19,19,0,0,0,1.57,4.33C104.57,171.71,104.53,171.72,104.49,171.72Z"/><path class="cls-3" d="M108.46,184.89a45,45,0,0,1-1.4-4.53c.66-.69,1.58-5.49-.23-8-.94-1.31-6.07-.37-9,1.27-1.26.71-1.86,1.42-1.64,1.94A2.82,2.82,0,0,0,98,177.14c1.65.52,4.06,0,6.14-1.25a6.77,6.77,0,0,1-6.28,1.7,3.28,3.28,0,0,1-2.12-1.85c-.23-.56-.11-1.45,1.85-2.55,2.93-1.65,8.4-2.81,9.61-1.13,1.86,2.6,1.1,7.31.34,8.3l1.13,4.23C108.5,184.89,108.48,184.89,108.46,184.89Z"/><path class="cls-3" d="M102,180.18a4.94,4.94,0,0,1-1-.11,10.6,10.6,0,0,1-4.1-2.14,15.31,15.31,0,0,1-2.51-2.45,3.74,3.74,0,0,1-1-2.45,2.76,2.76,0,0,1,.21-.87A3.34,3.34,0,0,1,96.37,170a2.84,2.84,0,0,1,1.71.79c.79.61,1.25,1,1.81,1.45a3.56,3.56,0,0,1-2-.95,2.79,2.79,0,0,0-1.58-.81A2.92,2.92,0,0,0,94,172.34a2.1,2.1,0,0,0-.17.72,3.17,3.17,0,0,0,.89,2.12,14.72,14.72,0,0,0,2.43,2.37,10.07,10.07,0,0,0,3.91,2,3.59,3.59,0,0,0,1.94-.07,2,2,0,0,0,1-.69,1.81,1.81,0,0,0-.12-2,1.53,1.53,0,0,1,.51,2.3,2.44,2.44,0,0,1-1.18.86A3.66,3.66,0,0,1,102,180.18Z"/><path class="cls-3" d="M100.65,182.47a3.7,3.7,0,0,1-.47,0,10.5,10.5,0,0,1-4.33-1.63,14.86,14.86,0,0,1-2.78-2.13,3.67,3.67,0,0,1-1.29-2.31,2.49,2.49,0,0,1,.1-.89,3.25,3.25,0,0,1,1.62-2.11,7.5,7.5,0,0,0-1.16,2.24,2,2,0,0,0-.08.73,3.16,3.16,0,0,0,1.14,2,14.29,14.29,0,0,0,2.7,2.06,10,10,0,0,0,4.13,1.56,3.47,3.47,0,0,0,1.91-.3,2,2,0,0,0,.87-.8,1.22,1.22,0,0,0,.12-1.09c.63.36.58.8.3,1.32a2.42,2.42,0,0,1-1.07,1A3.8,3.8,0,0,1,100.65,182.47Z"/><path class="cls-3" d="M100,186.74a21.27,21.27,0,0,1-.87-3.2,5,5,0,0,1-2.72-2.32c1.19.87,1.89,1.63,3,1.89a31,31,0,0,1,.85,3.34C100.05,186.73,100,186.74,100,186.74Z"/><path class="cls-3" d="M204.9,165.4c-5.68,0-11.24-1.26-13.66-4.88a18.83,18.83,0,0,1-2.65-6.7,33.74,33.74,0,0,1-.15-12.29,48.31,48.31,0,0,0,.62,12.19,18.38,18.38,0,0,0,2.58,6.54c3.14,4.69,12.53,5.4,20.45,4A19.68,19.68,0,0,1,204.9,165.4Z"/><path class="cls-3" d="M197.53,182.33c-8.69,0-13.15-4-15.8-7.09-9.69-11.38-8.33-30.53-7.68-36.13-.17,5.61-1.52,24.59,8,35.82,2.85,3.35,7.82,7.7,18.11,6.8A4.72,4.72,0,0,1,197.53,182.33Z"/><path class="cls-3" d="M186.06,142.45a32,32,0,0,1-4.85-.45c-2.57-.44-7.38-1.6-7.16-2.9.08-.46.94-.95,2.09-.95a4.18,4.18,0,0,0-1.62,1c-.06.4,2.26,1.59,6.77,2.35s7.09.39,7.15,0c0-.05,0-.5-1.92-1.18,1.77.1,2.5.66,2.4,1.26S187.58,142.45,186.06,142.45Z"/><path class="cls-3" d="M265.28,242.31H74.16c0-.47,191.12-.47,191.12-.47C265.52,242.21,265.41,242.31,265.28,242.31Z"/><path class="cls-3" d="M217.43,149.86c-.19,0-.32,0-.37.74s.14.9.31.9.35-.25.33-.8S217.68,149.9,217.43,149.86Z"/><path class="cls-3" d="M211.83,150c-.19,0-.31.06-.35.75s.17.9.34.89.34-.26.31-.8S212.08,150,211.83,150Z"/><path class="cls-3" d="M223,162.34c-.24-.22-.64-7.12-.64-7.12.48,0,.88,6.87.88,6.87A2.56,2.56,0,0,1,223,162.34Z"/><path class="cls-3" d="M214.25,161.12a3.62,3.62,0,0,1-3.34-1.39,8,8,0,0,1-.89-4.44c0-.33,0-.65,0-1,0-1,.07-7.49.08-7.77.48.08.36,6.76.4,7.76,0,.31,0,.63,0,1a7.66,7.66,0,0,0,.8,4.19c.83,1.23,2.27,1.2,3.66,1.16h.53a14.69,14.69,0,0,0,3-.32,4.53,4.53,0,0,1-3,.8h-1.25Z"/><path class="cls-3" d="M223.8,155.71a3.12,3.12,0,0,1-1.89-.64,3.86,3.86,0,0,0,3.59-.46,2.66,2.66,0,0,0-1.46-4.68,2.65,2.65,0,0,0-2.72,1.72,1.21,1.21,0,0,1,.48-1.48,3.14,3.14,0,0,1,4.41.4,3.14,3.14,0,0,1-.41,4.41A3.09,3.09,0,0,1,223.8,155.71Z"/><path class="cls-3" d="M210.38,149.09c-.21-.35.36-1.55,2.06-1.12a2.12,2.12,0,0,0-1.84,1A.24.24,0,0,1,210.38,149.09Z"/><path class="cls-3" d="M218.63,149.17c-1.31-1.51-2.41-.83-2.46-.8-.24-.41,1.25-1.35,2.65.41C218.74,149.15,218.69,149.17,218.63,149.17Z"/><path class="cls-3" d="M213.74,162.36c-.24-.24-.25-1.49-.25-1.49.48,0,.49,1.25.49,1.25Z"/><path class="cls-3" d="M225.84,150.6a7.9,7.9,0,0,0,1-6,4.3,4.3,0,0,0-2.77-3.06,5.75,5.75,0,0,0-2.42-.21c-.5,0-1.46.09-1.5.09,0-.48,1-.52,1.45-.57a6.53,6.53,0,0,1,2.62.23,4.76,4.76,0,0,1,3.08,3.39,6.65,6.65,0,0,1-1.14,5.9C226,150.57,225.91,150.6,225.84,150.6Z"/><path class="cls-3" d="M224.73,154.31c-.11,0-2.36-1.12-2.36-1.12-.07-.38,2-2.48,2-2.48.34.33-1.46,2.2-1.46,2.2l2,1C224.9,154.26,224.82,154.31,224.73,154.31Z"/><path class="cls-3" d="M218.94,142.9c-.19-.39,1-1.85,1-1.85.37.29-.79,1.76-.79,1.76A.25.25,0,0,1,218.94,142.9Z"/><path class="cls-3" d="M221.55,151a17.65,17.65,0,0,1-3.65-6.37,7.82,7.82,0,0,1-7.63,2.17A8.1,8.1,0,0,0,217.8,144c.43.11,1.74,4.31,3.93,6.58C221.68,151,221.61,151,221.55,151Z"/><path class="cls-3" d="M198.55,229.83c-.24-24.62.49-41.52,2-53.42-1.08,11.94-1.81,28.82-1.81,53.18A.23.23,0,0,1,198.55,229.83Z"/><path class="cls-3" d="M220.31,177.51c-.21-.11-4.48-7.15-4.48-7.15l-3.73,5.25c-.43-.14-.51-10.62-.51-10.62s1.95-3,1.95-3c.43.07,2.42,7.45,2.42,7.45l7-7.62c.35,0,3.1,2.91,3.1,2.91,0,.26-5.52,12.64-5.52,12.64ZM216.14,170l4.14,6.81,5.32-11.82-2.47-2.61Zm-4.07-4.89.07,9.67,3.44-4.85-1.94-7.18Z"/><path class="cls-3" d="M210.28,203.25c-.2,0-.27-.18-.23-.3,1.48-5,9.07-27,9.15-27.21.37.38-7.21,22.38-8.7,27.34A.21.21,0,0,1,210.28,203.25Z"/><path class="cls-3" d="M209.55,229.83c-.23-12.48.48-26.69.49-26.83.09-6,1.94-27.8,2-28,.46.26-1.4,22-1.48,28,0,.15-.73,14.35-.73,26.57A.23.23,0,0,1,209.55,229.83Z"/><path class="cls-3" d="M216.32,177.54l-2.75-.24a26.84,26.84,0,0,1-.52-3.75c.47,0,.77,3.29.77,3.29l2.39.21,2.07-2.92c.39.28-1.76,3.31-1.76,3.31A.23.23,0,0,1,216.32,177.54Z"/><path class="cls-3" d="M216.81,183.41a59,59,0,0,1-.72-6.09c.47,0,1,5.83,1,5.83C216.82,183.41,216.82,183.41,216.81,183.41Z"/><path class="cls-3" d="M211.76,181.06c-.22-.35,1.62-4.1,1.62-4.1.43.21-1.41,4-1.41,4A.24.24,0,0,1,211.76,181.06Z"/><path class="cls-3" d="M215.49,157.46a2.7,2.7,0,0,1-.84-.16c.68-.27,1.12-.28,1.46-.48a1.82,1.82,0,0,0,.71-1.13c.46.11.3,1.08-.46,1.54A1.71,1.71,0,0,1,215.49,157.46Z"/><path class="cls-3" d="M214.08,155.25a2.85,2.85,0,0,1-1.91-.53A.86.86,0,0,1,212,154c.21-1.2,1.31-4.82,1.35-5,.45.18-.67,3.88-.88,5.05.46.74,1.67.74,2.07.7C214.49,155.23,214.31,155.25,214.08,155.25Z"/><path class="cls-3" d="M210.16,149.53c-.23-.15-3.9-5.24-.44-8.42,3.24-3,7.41-3,10.35-.07a7.44,7.44,0,0,0-10,.43c-3.14,2.88.28,7.63.31,7.68C210.26,149.52,210.21,149.53,210.16,149.53Z"/><path class="cls-3" d="M262.61,229.83H169.2a6.31,6.31,0,0,1-5.95-5.71c.79,2.86,3.24,5.23,5.95,5.23h93.41a5.51,5.51,0,0,0,5.51-5.5V173.78a5.51,5.51,0,0,0-5.51-5.51H237.4c0-.48,25.21-.48,25.21-.48a6,6,0,0,1,6,6v50.07A6,6,0,0,1,262.61,229.83Z"/><path class="cls-3" d="M180.84,224.33H87.43a6,6,0,0,1-6-6V141.7a6,6,0,0,1,6-6h88.18c0,.48-88.18.48-88.18.48a5.51,5.51,0,0,0-5.51,5.51v76.64a5.51,5.51,0,0,0,5.51,5.51h93.41a5.51,5.51,0,0,0,5.5-5.51v-39c.48,0,.48,39,.48,39A6,6,0,0,1,180.84,224.33Z"/><path class="cls-3" d="M128.84,178.35c-1.11,0-4.8-.22-5.68-3.07-1-3.28,2-5.38,2-5.4.16.47-2.44,2.32-1.54,5.26s5.45,2.72,5.5,2.72C129.12,178.34,129,178.35,128.84,178.35Z"/><path class="cls-3" d="M138.74,178.33c0-.49,5-.73,5.93-3.68s-1.91-4.3-2-4.35c.24-.42,3.5,1.18,2.49,4.49s-6.16,3.53-6.38,3.54Z"/><path class="cls-3" d="M133.32,170.17a1.53,1.53,0,0,1-1.41-.71,10.59,10.59,0,0,0,1.59-5.28,6.74,6.74,0,0,1-1.09,5.17c.51.59,1.64.23,1.65.23C134.17,170,133.78,170.17,133.32,170.17Z"/><path class="cls-3" d="M250.39,229.83c-.24-.59,0-36-3.23-49.76-3.19-13.64-21.11-14.93-21.3-14.94.22-.47,18.5.84,21.77,14.84,3.23,13.84,3,49.27,3,49.63A.23.23,0,0,1,250.39,229.83Z"/><path class="cls-3" d="M233.78,229.83c.1-21.16-1.76-47.46-1.78-47.73.5.23,2.36,26.56,2,47.5A.23.23,0,0,1,233.78,229.83Z"/><path class="cls-3" d="M130.18,188.5l-.49,0a2.35,2.35,0,0,1-1.7-1.11c-1.54-2.44.2-8,.27-8.28,0-.07,1.57-2,1.57-2,.37,0,4.64,4.72,4.64,4.72,0,.36-.37,4.46-2.44,6.09A2.94,2.94,0,0,1,130.18,188.5Zm-1.48-9.23c-.15.51-1.66,5.68-.3,7.84a1.8,1.8,0,0,0,1.36.88,2.51,2.51,0,0,0,2-.52c1.73-1.36,2.23-4.82,2.3-5.47l-4-4.44Z"/><path class="cls-3" d="M138,188.51c-2.82,0-3.81-3.53-4.11-5.12.77,1.46,1.75,5,4.56,4.6a1.72,1.72,0,0,0,1.32-.86c1.33-2.17-.37-7.45-.54-7.95l-1.14-1.44-3.57,4.34c-.37-.31,3.38-4.88,3.38-4.88.38,0,1.73,1.71,1.73,1.71.13.31,2,6,.55,8.47a2.22,2.22,0,0,1-1.66,1.09A4.92,4.92,0,0,1,138,188.51Z"/><path class="cls-3" d="M157.65,153.56h-9.46c-.24-.24-.24-9.7-.24-9.7.24-.24,9.7-.24,9.7-.24.23.24.23,9.7.23,9.7A.23.23,0,0,1,157.65,153.56Zm-9.22-.48h9v-9h-9Z"/><path class="cls-3" d="M169.67,163.11h-6.74c-.24-.24-.24-7-.24-7,.24-.24,7-.24,7-.24.24.24.24,7,.24,7A.24.24,0,0,1,169.67,163.11Zm-6.5-.48h6.26v-6.26h-6.26Z"/><path class="cls-3" d="M105,218a6.1,6.1,0,0,1,6.09-4.34,6.69,6.69,0,0,1,5.83,3.06,8.17,8.17,0,0,0-5.83-2.58,6.28,6.28,0,0,0-5.87,3.71A.25.25,0,0,1,105,218Z"/><path class="cls-3" d="M163.59,218.07a6.71,6.71,0,0,0-6.13-3.94,6.35,6.35,0,0,0-5.37,2.75,5.49,5.49,0,0,1,5.37-3.23,6.74,6.74,0,0,1,6.35,4.1C163.65,218.07,163.62,218.07,163.59,218.07Z"/></svg>